<?xml version="1.0" encoding="utf-8"?>
<!-- Generator: Adobe Illustrator 16.0.0, SVG Export Plug-In . SVG Version: 6.00 Build 0)  -->
<!DOCTYPE svg PUBLIC "-//W3C//DTD SVG 1.1//EN" "http://www.w3.org/Graphics/SVG/1.1/DTD/svg11.dtd">
<svg xmlns="http://www.w3.org/2000/svg" viewBox="0 0 48 48" version="1.0" fit="" height="100%" width="100%" preserveAspectRatio="xMidYMid meet" style="pointer-events: none; display: inline-block;">
	<path fill="#FFF" d="M38.1 31.2L19.4 24l18.7-7.2c1.5-.6 2.3-2.3 1.7-3.9-.6-1.5-2.3-2.3-3.9-1.7l-26 10C8.8 21.6 8 22.8 8 24s.8 2.4 1.9 2.8l26 10c.4.1.7.2 1.1.2 1.2 0 2.3-.7 2.8-1.9.6-1.6-.2-3.3-1.7-3.9z"></path>
	<g fill="#F6D641">
		<circle cx="11" cy="24" r="7"></circle>
		<circle cx="37" cy="14" r="7"></circle>
		<circle cx="37" cy="34" r="7"></circle>
	</g>
</svg>
