<?xml version="1.0" encoding="utf-8"?>
<!-- Generator: Adobe Illustrator 16.0.0, SVG Export Plug-In . SVG Version: 6.00 Build 0)  -->
<!DOCTYPE svg PUBLIC "-//W3C//DTD SVG 1.1//EN" "http://www.w3.org/Graphics/SVG/1.1/DTD/svg11.dtd">
<svg xmlns="http://www.w3.org/2000/svg" viewBox="0 0 24 24" version="1.0" fit="" height="100%" width="100%" preserveAspectRatio="xMidYMid meet" style="pointer-events: none; display: inline-block;">
	<path d="M12.5 6c-1.5 0-2.764.536-2.438 2l1.438 6.5c.05.23.19.5.5.5h2c.31 0 .45-.27.5-.5L15.938 8C16.264 6.536 15 6 13.5 6H13zM7 9c-1 0-1.95.6-1.5 1.5l2 4c.167.333.5.5 1 .5h1s.615.018.5-.5L9 10c-.112-.503-.5-1-1-1zm11 0c-.5 0-.888.497-1 1l-1 4.5c-.115.518.5.5.5.5h1c.5 0 .833-.167 1-.5l2-4C20.95 9.6 20 9 19 9zM4.437 12.125c-.193 0-.356.118-.437.375l-.958 2.994c-.12.375-.037.566.47.47L6 15.5c.49-.094.572-.266.438-.5L5 12.5c-.146-.253-.37-.374-.563-.375zm17.125 0c-.193 0-.416.122-.562.375L19.562 15c-.134.234-.053.406.438.5l2.454.474c.506.097.62-.094.5-.468L22 12.5c-.082-.257-.244-.376-.438-.375z" overflow="visible"></path>
</svg>
